<?xml version="1.0" standalone="no"?>
<!DOCTYPE svg PUBLIC "-//W3C//DTD SVG 1.1//EN" "http://www.w3.org/Graphics/SVG/1.1/DTD/svg11.dtd">
<!--Generator: Xara Designer (www.xara.com), SVG filter version: 6.0.0.4-->
<svg stroke-width="0.501" stroke-linejoin="bevel" fill-rule="evenodd" xmlns:xlink="http://www.w3.org/1999/xlink" xmlns="http://www.w3.org/2000/svg" version="1.1" overflow="visible" width="59.694pt" height="23.523pt" viewBox="0 0 59.694 23.523">
 <defs>
	</defs>
 <g id="Document" fill="none" stroke="black" font-family="Times New Roman" font-size="16" transform="scale(1 -1)">
  <g id="Spread" transform="translate(0 -23.523)">
   <g id="Layer 1">
    <text xml:space="preserve" transform="translate(-0.041 16.005) scale(1 -1) scale(0.958099 1)" font-size="13.297" font-weight="bold" font-family="Verdana" fill="#5e5d5b" stroke-linejoin="round" stroke-linecap="round" stroke-width="0.25" stroke="none" stroke-miterlimit="79.8403193612775"><tspan x="0" y="0">х</tspan><tspan x="8.01273884376493" y="0">о</tspan><tspan x="16.2592738971174" y="0">р</tspan><tspan x="24.6748937091894" y="0">о</tspan><tspan x="32.9214287625418" y="0">ш</tspan><tspan x="45.3689894569199" y="0">и</tspan><tspan x="54.0632860009556" y="0">е</tspan></text>
    <text xml:space="preserve" transform="matrix(1.00011 0 0 -1 -0.669 5.874) scale(0.992218 1)" font-size="12.012" font-weight="bold" font-family="Verdana" fill="#5d5d5b" stroke-linejoin="round" stroke-linecap="round" stroke-width="0.25" stroke="none" stroke-miterlimit="79.8403193612775"><tspan x="0" y="0">б</tspan><tspan x="7.57293242702919" y="0">а</tspan><tspan x="14.7991668563344" y="0">с</tspan><tspan x="21.1868758957955" y="0">с</tspan><tspan x="27.5745849352567" y="0">е</tspan><tspan x="34.7544585857964" y="0">й</tspan><tspan x="42.6085792144681" y="0">н</tspan><tspan x="50.4566527850398" y="0">ы</tspan></text>
    <text xml:space="preserve" transform="translate(-0.336 0.103) scale(1 -1) scale(0.958466 1)" font-size="6.775" stroke="none" stroke-width="0.25" stroke-linecap="round" stroke-linejoin="round" font-family="Verdana" fill="#5d5d5b" stroke-miterlimit="79.8403193612775"><tspan x="0" y="0">с</tspan><tspan x="3.21972961441717" y="0">е</tspan><tspan x="6.85574960995956" y="0">м</tspan><tspan x="11.1730668959149" y="0">е</tspan><tspan x="14.8090868914573" y="0">й</tspan><tspan x="18.7466304963862" y="0">н</tspan><tspan x="22.6643507498328" y="0">а</tspan><tspan x="26.3337574426083" y="0">я </tspan><tspan x="31.979239277868" y="0">к</tspan><tspan x="35.589175916197" y="0">о</tspan><tspan x="39.3013593148024" y="0">м</tspan><tspan x="43.6186766007578" y="0">п</tspan><tspan x="47.5363968542045" y="0">а</tspan><tspan x="51.20580354698" y="0">н</tspan><tspan x="55.1235238004267" y="0">и</tspan><tspan x="59.0610674053555" y="0">я</tspan></text>
   </g>
  </g>
 </g>
</svg>
